<svg width="28" height="32" viewBox="0 0 28 32" fill="none" xmlns="http://www.w3.org/2000/svg">
<path d="M13.8236 0C14.0804 0.0740703 14.3402 0.139225 14.5934 0.223674C16.2288 0.769142 17.2862 2.70763 16.9354 4.50997C16.5725 6.37512 15.1412 7.60597 13.3913 7.55782C11.9355 7.51772 10.6607 6.3748 10.237 4.72971C9.76859 2.91055 10.7313 0.915271 12.401 0.267796C12.6959 0.153444 13.01 0.0880156 13.3152 0C13.4847 0 13.6542 0 13.8236 0Z" fill="#713BDB"/>
<path d="M14.1664 25.3072C16.0073 24.8306 17.4249 23.9052 18.5536 22.5483C19.8006 21.0492 20.4375 19.2994 20.5526 17.37C20.6182 16.2701 20.4701 15.172 20.0352 14.1628C19.7568 13.5169 19.9811 13.0842 20.4255 12.4518C20.7455 13.3652 21.1027 14.1429 21.2903 14.959C22.4506 20.0077 19.4415 24.9191 14.4053 26.2277C14.0122 26.3298 13.8588 26.5287 13.8037 26.9017C13.6077 28.2276 13.3932 29.5509 13.183 30.8747C13.1621 31.0058 13.1221 31.1339 13.0798 31.3096C12.782 29.8402 12.4916 28.4233 12.2098 27.0047C12.1474 26.6901 12.0341 26.527 11.6539 26.5182C7.44495 26.4207 3.61547 23.2277 2.77678 19.1154C2.12572 15.9231 2.91581 13.1032 5.04743 10.6318C5.57027 11.2325 5.58983 11.5046 5.1686 12.0867C1.66721 16.9259 4.13952 23.798 9.93962 25.3189C10.5311 25.474 11.1503 25.525 11.8758 25.6439C11.6928 24.9374 11.5531 24.3736 11.4006 23.8133C10.1988 19.3982 8.69314 15.0989 6.41057 11.1042C4.96247 8.5701 3.24938 6.24535 0.892812 4.45216C0.598368 4.22812 0.290256 4.02177 0 3.68494C0.482395 3.72472 0.973211 3.72119 1.44576 3.81168C3.54653 4.2139 5.35913 5.255 7.10798 6.41493C9.24166 7.83008 11.1825 9.48121 13.0141 11.262C13.1445 11.3888 13.2839 11.5066 13.2833 11.4325C14.3221 10.4936 15.352 9.5449 16.4016 8.61806C18.4778 6.7846 20.7099 5.20274 23.4265 4.42655C24.7972 4.03494 26.0573 3.97088 27.2395 4.26218C23.5367 6.62978 20.8041 9.79455 18.6763 13.5005C16.5654 17.1773 15.1502 21.1132 14.1664 25.3072Z" fill="#713BDB"/>
</svg>
